<?xml version="1.0" encoding="UTF-8"?>
<svg xmlns="http://www.w3.org/2000/svg" version="1.1" xmlns:xlink="http://www.w3.org/1999/xlink" viewBox="0 0 595.3 841.9">
  <defs>
    <style>
      .cls-1 {
        fill: #060505;
      }

      .cls-2 {
        fill: url(#radial-gradient);
      }

      .cls-3 {
        fill: #fefefe;
      }

      .cls-4 {
        fill: #2e2c2c;
      }

      .cls-5 {
        fill: #fff;
        stroke: #2bb673;
        stroke-miterlimit: 10;
        stroke-width: 2.5px;
      }
    </style>
    <radialGradient id="radial-gradient" cx="297.6" cy="423.1" fx="297.6" fy="423.1" r="234.5" gradientTransform="translate(0 844) scale(1 -1)" gradientUnits="userSpaceOnUse">
      <stop offset=".2" stop-color="#68c6b5"/>
      <stop offset=".3" stop-color="#58c0b6"/>
      <stop offset=".5" stop-color="#31b2ba"/>
      <stop offset=".6" stop-color="#00a1bf"/>
      <stop offset=".7" stop-color="#00a0bd"/>
      <stop offset=".8" stop-color="#008f9e"/>
      <stop offset=".9" stop-color="#00858b"/>
      <stop offset="1" stop-color="#008285"/>
    </radialGradient>
  </defs>
  <!-- Generator: Adobe Illustrator 28.7.3, SVG Export Plug-In . SVG Version: 1.2.0 Build 164)  -->
  <g>
    <g id="Layer_1">
      <g>
        <g>
          <ellipse class="cls-5" cx="297.6" cy="420.9" rx="235.8" ry="233.2"/>
          <ellipse class="cls-2" cx="297.6" cy="420.9" rx="235.8" ry="233.2"/>
          <path class="cls-3" d="M466.1,217.9c-.4.4-.8.9-1.2,1.4,0-.8-.2-1.8,1.2-1.4Z"/>
        </g>
        <g>
          <path class="cls-1" d="M335.6,458.9c-2.2-.7-4.6-.6-6.9-.9-4-.6-7.9-1.3-11.8-2.2-.8-.2-1.2-.4-.9-1.3,2-6.1,4-12.2,5.9-18.3.3-1,.7-1.1,1.7-.8,5.9,1.8,11.8,3.5,18,3.9,3,.2,5.9.1,8.6-1,1.7-.7,2.9-1.8,3-3.6,0-1.6-1.3-2.4-2.6-3.1-4.1-2-8.5-3.5-12.6-5.6-2.2-1.2-4.4-2.4-6.4-3.8-7.8-5.3-9.3-12.6-5.8-20.3,3.2-7,9.5-11.4,17.1-14.5,9.8-4,20.2-5,30.9-4.1,3.6.3,7.2.9,10.7,1.6,1.6.3,2,.6,1.5,2.1-1.9,5.7-3.6,11.3-5.2,17-.3,1-.6,1.2-1.7.8-3.9-1.2-7.9-2.2-11.9-2.9-2.7-.4-5.5-.5-8.2.2-1.2.3-2.4.8-3.3,1.6-2,1.7-2,3.4.4,4.6,3,1.5,6.1,2.6,9.1,3.9,3.1,1.3,6.2,2.7,9,4.4,9.6,5.7,12.3,14.4,7.1,23.5-5.5,9.6-14.7,15-26.3,17.5-2.5.5-5,.9-7.5,1-.3,0-.6,0-.7.3h-2.1c-2.1-.5-4.2-.5-6.3,0h-2.8,0Z"/>
          <path class="cls-1" d="M463.8,385.5c-1.2,3-1.6,6.2-2.4,9.4-.8,3.2-1.6,6.3-2.2,9.5-.2,1-.6,1.4-1.9,1.4-6.1,0-12.1,0-18.2,0-1.3,0-1.7.4-2,1.5-4.5,16.4-9,32.8-13.4,49.1-.1.6,0,1.2-1.1,1.2h-29c4.7-17.3,9.4-34.4,14.1-51.6-.6-.3-1.2-.2-1.7-.2-6.6,0-13.2,0-19.8,0-1.5,0-1.6-.3-1.2-1.4,2.2-6.2,4.3-12.3,6.3-18.5.3-1,.9-1.4,2.1-1.4,22.8,0,45.6,0,68.4,0s1.3,0,1.9,0v1.2h0Z"/>
          <path class="cls-4" d="M338.3,458.9c2.1-.5,4.2-.5,6.3,0h-6.3Z"/>
          <path class="cls-1" d="M296.6,430.4c1.1.8,1.9,1.6,2.5,2.4,5.4,7.8,9.6,16,13.9,24.2-.4.4-.8.3-1.2.3-10,0-20.1,0-30.1,0-1.1,0-1.6-.3-1.9-1.2-3.1-7.8-6.5-15.5-10.4-23.4-.8,2.8-1.4,5.3-2.1,7.8-1.4,5.3-2.8,10.6-4.1,15.9-.2.7-.5,1-1.4,1-8.9,0-17.8,0-26.7,0-1.1,0-1.2-.3-1-1.2,2.8-10.4,5.5-20.9,8.3-31.3,3.4-12.9,6.9-25.9,10.3-38.8.3-1,.8-1.4,1.9-1.5,11.5-1,23-1.9,34.5-1.5,5.6.2,11.2.9,16.7,2.4,10.9,3,16.7,10.1,15.9,20.1-.7,8.2-4.8,14.9-12.3,20-3.1,2.1-6.6,3.2-10.3,4.2-.8.2-1.5.4-2.5.7h0ZM275.6,419.1c.9,0,1.9-.2,3-.3,5.9-.7,10.8-4.2,12.2-8.8,1.2-4.1-.3-6.9-4.3-7.8-2.5-.6-5.1-.5-7.7-.3-1.1,0-1.5.6-1.7,1.5-1.2,4.5-2.4,9-3.5,13.5-.5,2-.3,2.2,2.1,2.2h0Z"/>
          <path class="cls-1" d="M179.3,384.4c9,0,18,0,27,0,1.6,0,1.7.3,1.4,1.6-1.6,5.6-3.2,11.1-4.7,16.7-.3,1-.7,1.4-2,1.3-8.1,0-16.3,0-24.4,0-1.3,0-1.7.4-1.9,1.4-.6,2.5-1.2,4.9-1.9,7.4-.4,1.2,0,1.4,1.2,1.4,8.5,0,17,0,25.5,0,1.3,0,1.6.1,1.3,1.4-1.5,5.2-2.9,10.3-4.3,15.5-.2.9-.8,1.1-1.8,1.1-8.4,0-16.9,0-25.3,0-1.1,0-1.7.2-2,1.3-1.9,7.5-4,15-5.9,22.5-.3,1.4-.9,1.8-2.6,1.8-8.7,0-17.4,0-26.2,0-1.2,0-1.6,0-1.3-1.3,6.2-23.4,12.4-46.8,18.6-70.2.3-1.2.9-1.5,2.3-1.5,9,0,17.9,0,26.8,0h0Z"/>
          <path class="cls-1" d="M211.3,457.4c-4.5,0-8.9,0-13.3,0-1.2,0-1.6-.2-1.3-1.3,6.3-23.5,12.5-47,18.7-70.4.2-.9.6-1.3,1.8-1.3,9,0,17.9,0,26.8,0,1.2,0,1.5.1,1.2,1.3-6.2,23.4-12.4,46.7-18.5,70.1-.3,1.3-.9,1.7-2.4,1.6-4.3,0-8.7,0-13,0h0Z"/>
        </g>
      </g>
    </g>
  </g>
</svg>