<svg width="73" height="415" viewBox="0 0 73 415" fill="none" xmlns="http://www.w3.org/2000/svg">
<path d="M72.3758 25.4865C73.1182 1.12601 73.0718 0.801178 70.8909 0.197968C68.8957 -0.358826 64.0236 0.337219 63.0492 1.31161C62.6316 1.72922 61.8892 14.1646 61.4252 28.9201C60.1724 66.876 62.214 63.1176 32.0998 83.0699C7.5074 99.3102 1.80009 104.414 -1.86558 113.509L-4.00002 118.845L-3.95361 202.83C-3.90721 278.046 -1.63357 405.463 -0.241547 412.33C0.129662 414.001 0.825676 414.418 3.33132 414.418C8.80662 414.418 8.71382 415.207 7.693 375.72C7.18259 355.907 6.53298 328.438 6.30098 314.61L5.83697 289.554L33.6311 270.158C48.8969 259.486 61.4252 250.299 61.3788 249.742C61.3788 249.231 60.2188 247.375 58.7803 245.658L56.1819 242.503L49.7786 247.143C37.8071 255.681 6.71858 277.072 6.20818 277.072C5.97617 277.072 5.74416 260.646 5.74416 240.601V204.083L12.0083 199.582C38.828 180.187 60.8684 164.596 61.9356 164.179C63.838 163.436 63.606 161.163 61.1932 157.636C58.4091 153.599 60.8684 152.346 32.9351 172.299C19.2932 182.043 7.6002 190.256 6.95059 190.488C5.28016 191.137 5.18736 125.109 6.81139 118.567C8.24981 112.859 13.7715 107.43 26.2533 99.3102C72.5614 69.2425 70.9837 71.7945 72.3758 25.4865Z" fill="#CEC7CF" fill-opacity="0.5"/>
</svg>
