<svg width="73" height="415" viewBox="0 0 73 415" fill="none" xmlns="http://www.w3.org/2000/svg">
<path d="M0.432334 25.4865C-0.310079 1.12601 -0.263679 0.801178 1.91716 0.197968C3.9124 -0.358826 8.78448 0.337219 9.7589 1.31161C10.1765 1.72922 10.9189 14.1646 11.3829 28.9201C12.6358 66.876 10.5941 63.1176 40.7083 83.0699C65.3007 99.3102 71.008 104.414 74.6737 113.509L76.8081 118.845L76.7617 202.83C76.7153 278.046 74.4417 405.463 73.0497 412.33C72.6784 414.001 71.9824 414.418 69.4768 414.418C64.0015 414.418 64.0943 415.207 65.1151 375.72C65.6255 355.907 66.2751 328.438 66.5071 314.61L66.9711 289.554L39.177 270.158C23.9112 259.486 11.3829 250.299 11.4293 249.742C11.4293 249.231 12.5894 247.375 14.0278 245.658L16.6262 242.503L23.0295 247.143C35.001 255.681 66.0895 277.072 66.5999 277.072C66.8319 277.072 67.0639 260.646 67.0639 240.601V204.083L60.7998 199.582C33.9801 180.187 11.9397 164.596 10.8725 164.179C8.97009 163.436 9.20209 161.163 11.6149 157.636C14.399 153.599 11.9397 152.346 39.8731 172.299C53.5149 182.043 65.2079 190.256 65.8575 190.488C67.5279 191.137 67.6208 125.109 65.9967 118.567C64.5583 112.859 59.0366 107.43 46.5548 99.3102C0.246731 69.2425 1.82436 71.7945 0.432334 25.4865Z" fill="#CEC7CF" fill-opacity="0.5"/>
</svg>
