<?xml version="1.0" encoding="UTF-8"?>
<svg xmlns="http://www.w3.org/2000/svg" version="1.1" xmlns:xlink="http://www.w3.org/1999/xlink" viewBox="0 0 595.3 841.9">
  <defs>
    <style>
      .cls-1 {
        fill: url(#radial-gradient);
      }

      .cls-2 {
        fill: url(#linear-gradient);
      }
    </style>
    <radialGradient id="radial-gradient" cx="286.7" cy="653.7" fx="286.7" fy="653.7" r="224.2" gradientTransform="translate(578.4 806.1) rotate(-180) scale(1 1)" gradientUnits="userSpaceOnUse">
      <stop offset="0" stop-color="#6d6e71"/>
      <stop offset="0" stop-color="#7e8083"/>
      <stop offset=".2" stop-color="#a7a9ac"/>
      <stop offset=".3" stop-color="#b7b9bb"/>
      <stop offset=".4" stop-color="#d6d8d9"/>
      <stop offset=".5" stop-color="#eaebeb"/>
      <stop offset=".6" stop-color="#f1f2f2"/>
    </radialGradient>
    <linearGradient id="linear-gradient" x1="178.8" y1="453.5" x2="399.6" y2="453.5" gradientTransform="translate(578.4 844) rotate(-180)" gradientUnits="userSpaceOnUse">
      <stop offset="0" stop-color="#fff"/>
      <stop offset="0" stop-color="#939598"/>
      <stop offset=".5" stop-color="#d0d2d3"/>
      <stop offset="1" stop-color="#808285"/>
    </linearGradient>
  </defs>
  <!-- Generator: Adobe Illustrator 28.7.3, SVG Export Plug-In . SVG Version: 1.2.0 Build 164)  -->
  <g>
    <g id="Layer_1">
      <g>
        <path class="cls-1" d="M178.8,134.1c-2.1,16.8,54.9,44.2,110.4,44.2s112.5-27.5,110.4-44.2c-2.3-18.1-73.8-23.3-104.9-23.7-41.1-.6-113.6,5.4-115.9,23.7h0Z"/>
        <path class="cls-2" d="M178.8,627.4c23.3,8.6,60.6,19.2,107.6,19.6,49.9.4,89.4-10.9,113.2-19.6V134.1c-18.8,8-61.3,23.4-118.2,21.9-48.1-1.3-84.2-14.1-102.6-21.9v493.3Z"/>
      </g>
    </g>
  </g>
</svg>