<?xml version="1.0" standalone="no"?>
<!DOCTYPE svg PUBLIC "-//W3C//DTD SVG 20010904//EN"
 "http://www.w3.org/TR/2001/REC-SVG-20010904/DTD/svg10.dtd">
<svg version="1.0" xmlns="http://www.w3.org/2000/svg"
 width="97.000000pt" height="97.000000pt" viewBox="0 0 97.000000 97.000000"
 preserveAspectRatio="xMidYMid meet">

<g transform="translate(0.000000,97.000000) scale(0.100000,-0.100000)"
fill="#000000" stroke="none">
<path d="M7 963 c-4 -3 -7 -222 -7 -485 l0 -478 485 0 485 0 0 485 0 485 -478
0 c-263 0 -482 -3 -485 -7z m691 -138 c3 -3 -20 -5 -52 -5 -52 0 -57 -2 -51
-19 5 -18 3 -18 -57 -5 -86 18 -94 18 -77 -2 12 -15 7 -15 -56 -9 -39 4 -90
11 -115 15 l-45 8 50 1 c28 1 60 4 73 7 22 6 22 7 5 27 -18 19 -17 19 12 14
17 -4 48 -9 70 -13 22 -3 49 -8 60 -11 16 -4 18 -3 8 8 -7 7 -13 16 -13 20 0
7 180 -28 188 -36z m-421 -71 c-3 -3 -12 -4 -19 -1 -8 3 -5 6 6 6 11 1 17 -2
13 -5z m440 0 c-3 -3 -12 -4 -19 -1 -8 3 -5 6 6 6 11 1 17 -2 13 -5z m-487
-14 c0 -5 -5 -10 -11 -10 -5 0 -7 5 -4 10 3 6 8 10 11 10 2 0 4 -4 4 -10z
m525 0 c3 -5 1 -10 -4 -10 -6 0 -11 5 -11 10 0 6 2 10 4 10 3 0 8 -4 11 -10z
m-445 -24 c0 -2 -7 -6 -15 -10 -8 -3 -15 -1 -15 4 0 6 7 10 15 10 8 0 15 -2
15 -4z m380 -6 c0 -5 -7 -7 -15 -4 -8 4 -15 8 -15 10 0 2 7 4 15 4 8 0 15 -4
15 -10z m-450 -14 c0 -3 -4 -8 -10 -11 -5 -3 -10 -1 -10 4 0 6 5 11 10 11 6 0
10 -2 10 -4z m515 -6 c3 -5 2 -10 -4 -10 -5 0 -13 5 -16 10 -3 6 -2 10 4 10 5
0 13 -4 16 -10z m-405 -15 c0 -2 -9 -9 -19 -14 -14 -8 -20 -7 -25 4 -4 11 2
15 19 15 14 0 25 -2 25 -5z m314 -9 c-3 -8 -12 -12 -20 -9 -21 8 -17 23 6 23
13 0 18 -5 14 -14z m-26 -41 c33 -15 71 -38 83 -51 21 -23 22 -25 5 -43 -18
-20 -19 -20 -55 9 -43 35 -136 70 -185 70 -54 0 -132 -30 -176 -68 -137 -116
-111 -318 51 -407 46 -25 65 -29 129 -29 107 0 171 37 214 121 31 61 28 63
-99 63 l-115 0 0 30 c0 95 90 146 131 75 l21 -36 17 33 c20 42 60 49 90 17 65
-70 17 -244 -86 -309 -89 -56 -216 -63 -318 -16 -73 33 -110 69 -144 138 -55
109 -39 242 41 333 68 77 145 107 259 101 56 -3 94 -11 137 -31z m-384 16 c3
-5 -1 -12 -10 -15 -20 -8 -29 -1 -19 13 8 13 22 14 29 2z m494 -10 c3 -8 -1
-12 -9 -9 -7 2 -15 10 -17 17 -3 8 1 12 9 9 7 -2 15 -10 17 -17z"/>
<path d="M535 380 c-23 -45 -19 -50 36 -50 51 0 51 0 44 27 -15 60 -55 72 -80
23z"/>
<path d="M674 375 c-7 -19 -14 -37 -14 -40 0 -3 23 -5 50 -5 28 0 50 2 50 5 0
3 -7 21 -14 40 -20 48 -52 48 -72 0z"/>
</g>
</svg>
